<svg width="271" height="57" viewBox="0 0 271 57" fill="none" xmlns="http://www.w3.org/2000/svg">
<rect width="271" height="57" rx="28.5" fill="#ADD11B"/>
<rect x="15" y="4" width="243" height="24" rx="12" fill="#C5EC2A"/>
<path d="M86.0312 35.1016V47.125H79V13H92.3125C94.875 13 97.125 13.4688 99.0625 14.4062C101.016 15.3438 102.516 16.6797 103.562 18.4141C104.609 20.1328 105.133 22.0938 105.133 24.2969C105.133 27.6406 103.984 30.2812 101.688 32.2188C99.4062 34.1406 96.2422 35.1016 92.1953 35.1016H86.0312ZM86.0312 29.4062H92.3125C94.1719 29.4062 95.5859 28.9688 96.5547 28.0938C97.5391 27.2188 98.0312 25.9688 98.0312 24.3438C98.0312 22.6719 97.5391 21.3203 96.5547 20.2891C95.5703 19.2578 94.2109 18.7266 92.4766 18.6953H86.0312V29.4062Z" fill="#626262"/>
<path d="M117.016 41.4766H131.945V47.125H109.984V13H117.016V41.4766Z" fill="#626262"/>
<path d="M155.734 40.0938H143.406L141.062 47.125H133.586L146.289 13H152.805L165.578 47.125H158.102L155.734 40.0938ZM145.305 34.3984H153.836L149.547 21.625L145.305 34.3984Z" fill="#626262"/>
<path d="M177.016 28.375L184.117 13H191.805L180.602 34.75V47.125H173.453V34.75L162.25 13H169.961L177.016 28.375Z" fill="#626262"/>
</svg>
